<svg width="31" height="30" viewBox="0 0 31 30" fill="none" xmlns="http://www.w3.org/2000/svg">
<ellipse cx="15.5" cy="15" rx="15.5" ry="15" fill="#1F1147"/>
<path d="M12.0114 21V9.36364H16.6705C17.5265 9.36364 18.2405 9.49053 18.8125 9.74432C19.3845 9.99811 19.8144 10.3504 20.1023 10.8011C20.3902 11.2481 20.5341 11.7633 20.5341 12.3466C20.5341 12.8011 20.4432 13.2008 20.2614 13.5455C20.0795 13.8864 19.8295 14.1667 19.5114 14.3864C19.197 14.6023 18.8371 14.7557 18.4318 14.8466V14.9602C18.875 14.9792 19.2898 15.1042 19.6761 15.3352C20.0663 15.5663 20.3826 15.8902 20.625 16.3068C20.8674 16.7197 20.9886 17.2121 20.9886 17.7841C20.9886 18.4015 20.8352 18.9527 20.5284 19.4375C20.2254 19.9186 19.7765 20.2992 19.1818 20.5795C18.5871 20.8598 17.8542 21 16.983 21H12.0114ZM14.4716 18.9886H16.4773C17.1629 18.9886 17.6629 18.858 17.9773 18.5966C18.2917 18.3314 18.4489 17.9792 18.4489 17.5398C18.4489 17.2178 18.3712 16.9337 18.2159 16.6875C18.0606 16.4413 17.839 16.2481 17.5511 16.108C17.267 15.9678 16.928 15.8977 16.5341 15.8977H14.4716V18.9886ZM14.4716 14.233H16.2955C16.6326 14.233 16.9318 14.1742 17.1932 14.0568C17.4583 13.9356 17.6667 13.7652 17.8182 13.5455C17.9735 13.3258 18.0511 13.0625 18.0511 12.7557C18.0511 12.3352 17.9015 11.9962 17.6023 11.7386C17.3068 11.4811 16.8864 11.3523 16.3409 11.3523H14.4716V14.233Z" fill="white"/>
</svg>
