<svg width="31" height="30" viewBox="0 0 31 30" fill="none" xmlns="http://www.w3.org/2000/svg">
<ellipse cx="15.5" cy="15" rx="15.5" ry="15" fill="#1F1147"/>
<path d="M21.2784 13.4375H18.7898C18.7443 13.1155 18.6515 12.8295 18.5114 12.5795C18.3712 12.3258 18.1913 12.1098 17.9716 11.9318C17.7519 11.7538 17.4981 11.6174 17.2102 11.5227C16.9261 11.428 16.6174 11.3807 16.2841 11.3807C15.6818 11.3807 15.1572 11.5303 14.7102 11.8295C14.2633 12.125 13.9167 12.5568 13.6705 13.125C13.4242 13.6894 13.3011 14.375 13.3011 15.1818C13.3011 16.0114 13.4242 16.7083 13.6705 17.2727C13.9205 17.8371 14.2689 18.2633 14.7159 18.5511C15.1629 18.839 15.6799 18.983 16.267 18.983C16.5966 18.983 16.9015 18.9394 17.1818 18.8523C17.4659 18.7652 17.7178 18.6383 17.9375 18.4716C18.1572 18.3011 18.339 18.0947 18.483 17.8523C18.6307 17.6098 18.733 17.3333 18.7898 17.0227L21.2784 17.0341C21.214 17.5682 21.053 18.0833 20.7955 18.5795C20.5417 19.072 20.1989 19.5133 19.767 19.9034C19.339 20.2898 18.8277 20.5966 18.233 20.8239C17.642 21.0473 16.9735 21.1591 16.2273 21.1591C15.1894 21.1591 14.2614 20.9242 13.4432 20.4545C12.6288 19.9848 11.9848 19.3049 11.5114 18.4148C11.0417 17.5246 10.8068 16.447 10.8068 15.1818C10.8068 13.9129 11.0455 12.8333 11.5227 11.9432C12 11.053 12.6477 10.375 13.4659 9.90909C14.2841 9.43939 15.2045 9.20455 16.2273 9.20455C16.9015 9.20455 17.5265 9.29924 18.1023 9.48864C18.6818 9.67803 19.1951 9.95455 19.642 10.3182C20.089 10.678 20.4527 11.1193 20.733 11.642C21.017 12.1648 21.1989 12.7633 21.2784 13.4375Z" fill="white"/>
</svg>
