<svg width="31" height="30" viewBox="0 0 31 30" fill="none" xmlns="http://www.w3.org/2000/svg">
<ellipse cx="15.5" cy="15" rx="15.5" ry="15" fill="#1F1147"/>
<path d="M15.1364 21H11.0114V9.36364H15.1705C16.3409 9.36364 17.3485 9.59659 18.1932 10.0625C19.0379 10.5246 19.6875 11.1894 20.142 12.0568C20.6004 12.9242 20.8295 13.9621 20.8295 15.1705C20.8295 16.3826 20.6004 17.4242 20.142 18.2955C19.6875 19.1667 19.0341 19.8352 18.1818 20.3011C17.3333 20.767 16.3182 21 15.1364 21ZM13.4716 18.892H15.0341C15.7614 18.892 16.3731 18.7633 16.8693 18.5057C17.3693 18.2443 17.7443 17.8409 17.9943 17.2955C18.2481 16.7462 18.375 16.0379 18.375 15.1705C18.375 14.3106 18.2481 13.608 17.9943 13.0625C17.7443 12.517 17.3712 12.1155 16.875 11.858C16.3788 11.6004 15.767 11.4716 15.0398 11.4716H13.4716V18.892Z" fill="white"/>
</svg>
